<svg width="130" height="32" viewBox="0 0 130 32" fill="none" xmlns="http://www.w3.org/2000/svg">
<path d="M46.992 9.008V9.488C46.512 9.584 46.144 9.752 45.888 9.992C45.648 10.232 45.488 10.608 45.408 11.12C45.328 11.616 45.288 12.32 45.288 13.232V26C45.048 25.968 44.784 25.952 44.496 25.952C44.224 25.952 43.928 25.968 43.608 26L32.976 14.384V21.296C32.976 22.368 33.016 23.192 33.096 23.768C33.192 24.328 33.408 24.736 33.744 24.992C34.096 25.232 34.648 25.408 35.4 25.52V26C35.08 25.968 34.664 25.952 34.152 25.952C33.64 25.936 33.16 25.928 32.712 25.928C32.36 25.928 32 25.936 31.632 25.952C31.264 25.952 30.96 25.968 30.72 26V25.52C31.216 25.408 31.584 25.24 31.824 25.016C32.064 24.776 32.224 24.4 32.304 23.888C32.384 23.376 32.424 22.672 32.424 21.776V11.552C32.424 10.96 32.384 10.528 32.304 10.256C32.224 9.968 32.056 9.776 31.8 9.68C31.56 9.568 31.2 9.504 30.72 9.488V9.008C30.96 9.024 31.264 9.04 31.632 9.056C32 9.072 32.36 9.08 32.712 9.08C33.112 9.08 33.504 9.072 33.888 9.056C34.272 9.04 34.616 9.024 34.92 9.008L44.736 19.376V13.712C44.736 12.64 44.688 11.824 44.592 11.264C44.512 10.688 44.304 10.272 43.968 10.016C43.632 9.76 43.08 9.584 42.312 9.488V9.008C42.632 9.024 43.048 9.04 43.56 9.056C44.072 9.072 44.552 9.08 45 9.08C45.368 9.08 45.728 9.072 46.08 9.056C46.448 9.04 46.752 9.024 46.992 9.008ZM53.9979 13.208C55.4059 13.208 56.5099 13.624 57.3099 14.456C58.1259 15.272 58.5339 16.648 58.5339 18.584H51.0219L50.9739 18.128H55.0299C55.0459 17.344 55.0139 16.624 54.9339 15.968C54.8539 15.296 54.7259 14.76 54.5499 14.36C54.3739 13.96 54.1339 13.76 53.8299 13.76C53.3979 13.76 53.0459 14.104 52.7739 14.792C52.5019 15.464 52.3259 16.624 52.2459 18.272L52.3419 18.464C52.3259 18.624 52.3179 18.784 52.3179 18.944C52.3179 19.104 52.3179 19.272 52.3179 19.448C52.3179 20.568 52.4539 21.44 52.7259 22.064C53.0139 22.688 53.3659 23.12 53.7819 23.36C54.2139 23.6 54.6459 23.72 55.0779 23.72C55.3019 23.72 55.5659 23.688 55.8699 23.624C56.1899 23.56 56.5339 23.416 56.9019 23.192C57.2699 22.952 57.6299 22.592 57.9819 22.112L58.3899 22.256C58.1979 22.896 57.8859 23.536 57.4539 24.176C57.0379 24.8 56.4939 25.32 55.8219 25.736C55.1499 26.136 54.3339 26.336 53.3739 26.336C52.3499 26.336 51.4139 26.128 50.5659 25.712C49.7339 25.296 49.0699 24.608 48.5739 23.648C48.0779 22.688 47.8299 21.4 47.8299 19.784C47.8299 18.248 48.1019 17 48.6459 16.04C49.1899 15.064 49.9259 14.352 50.8539 13.904C51.7979 13.44 52.8459 13.208 53.9979 13.208ZM65.9561 13.544V14.048C65.6201 14.048 65.3321 14.072 65.0921 14.12C64.8681 14.152 64.7161 14.232 64.6361 14.36C64.5561 14.488 64.5481 14.688 64.6121 14.96L66.7481 22.088L66.3401 22.64L68.6681 13.568L69.1721 13.832L65.9801 26C65.5961 25.968 65.2041 25.952 64.8041 25.952C64.4201 25.952 64.0361 25.968 63.6521 26L59.9561 15.392C59.7321 14.752 59.4841 14.368 59.2121 14.24C58.9561 14.112 58.7401 14.048 58.5641 14.048V13.544C59.2041 13.592 59.8681 13.632 60.5561 13.664C61.2441 13.68 62.0041 13.688 62.8361 13.688C63.3321 13.688 63.8521 13.672 64.3961 13.64C64.9561 13.608 65.4761 13.576 65.9561 13.544ZM78.0521 13.544V14.048C77.7481 14.16 77.4521 14.376 77.1641 14.696C76.8761 15.016 76.6041 15.576 76.3481 16.376L73.3481 26C72.9641 25.968 72.5721 25.952 72.1721 25.952C71.7881 25.952 71.4041 25.968 71.0201 26L67.9721 17.144L68.6921 13.568C69.1081 13.6 69.5321 13.616 69.9641 13.616C70.3961 13.6 70.8201 13.584 71.2361 13.568L74.2121 23.12L73.9001 22.592L75.0041 18.92C75.3401 17.816 75.4681 16.92 75.3881 16.232C75.3081 15.528 75.0921 15 74.7401 14.648C74.3881 14.296 73.9561 14.096 73.4441 14.048V13.544C73.6681 13.56 73.9561 13.576 74.3081 13.592C74.6761 13.608 75.0361 13.624 75.3881 13.64C75.7401 13.64 76.0121 13.64 76.2041 13.64C76.4921 13.64 76.8281 13.632 77.2121 13.616C77.5961 13.6 77.8761 13.576 78.0521 13.544ZM83.169 13.208C83.873 13.208 84.489 13.288 85.017 13.448C85.561 13.592 85.953 13.728 86.193 13.856C86.753 14.192 87.097 13.984 87.225 13.232H87.705C87.673 13.696 87.649 14.264 87.633 14.936C87.617 15.592 87.609 16.464 87.609 17.552H87.129C87.065 16.96 86.921 16.376 86.697 15.8C86.489 15.224 86.177 14.744 85.761 14.36C85.361 13.976 84.833 13.784 84.177 13.784C83.777 13.784 83.441 13.904 83.169 14.144C82.897 14.384 82.761 14.712 82.761 15.128C82.761 15.608 82.905 16.04 83.193 16.424C83.481 16.792 83.849 17.152 84.297 17.504C84.745 17.84 85.193 18.2 85.641 18.584C86.137 18.984 86.577 19.376 86.961 19.76C87.345 20.144 87.649 20.568 87.873 21.032C88.113 21.48 88.233 22.016 88.233 22.64C88.233 23.36 88.009 24 87.561 24.56C87.129 25.12 86.545 25.56 85.809 25.88C85.089 26.184 84.281 26.336 83.385 26.336C82.825 26.336 82.337 26.272 81.921 26.144C81.505 26.032 81.169 25.896 80.913 25.736C80.657 25.608 80.433 25.512 80.241 25.448C80.065 25.368 79.889 25.328 79.713 25.328C79.553 25.328 79.417 25.416 79.305 25.592C79.193 25.752 79.105 25.944 79.041 26.168H78.561C78.593 25.656 78.617 25.032 78.633 24.296C78.649 23.56 78.657 22.584 78.657 21.368H79.137C79.233 22.216 79.417 22.968 79.689 23.624C79.977 24.28 80.337 24.8 80.769 25.184C81.217 25.552 81.729 25.736 82.305 25.736C82.561 25.736 82.793 25.688 83.001 25.592C83.209 25.496 83.377 25.352 83.505 25.16C83.633 24.968 83.697 24.72 83.697 24.416C83.697 23.712 83.481 23.12 83.049 22.64C82.633 22.16 82.105 21.632 81.465 21.056C80.985 20.608 80.529 20.176 80.097 19.76C79.681 19.328 79.337 18.864 79.065 18.368C78.793 17.856 78.657 17.288 78.657 16.664C78.657 15.944 78.865 15.328 79.281 14.816C79.713 14.304 80.273 13.912 80.961 13.64C81.649 13.352 82.385 13.208 83.169 13.208ZM92.8093 7.232C93.6413 7.232 94.2813 7.408 94.7293 7.76C95.1933 8.096 95.4253 8.608 95.4253 9.296C95.4253 9.984 95.1933 10.504 94.7293 10.856C94.2813 11.192 93.6413 11.36 92.8093 11.36C91.9773 11.36 91.3293 11.192 90.8653 10.856C90.4173 10.504 90.1933 9.984 90.1933 9.296C90.1933 8.608 90.4173 8.096 90.8653 7.76C91.3293 7.408 91.9773 7.232 92.8093 7.232ZM95.1133 13.28V23.768C95.1133 24.44 95.2093 24.896 95.4013 25.136C95.6093 25.376 95.9613 25.496 96.4573 25.496V26C96.1373 25.984 95.6573 25.968 95.0173 25.952C94.3773 25.92 93.7213 25.904 93.0493 25.904C92.3773 25.904 91.6973 25.92 91.0093 25.952C90.3213 25.968 89.8013 25.984 89.4493 26V25.496C89.9453 25.496 90.2893 25.376 90.4813 25.136C90.6893 24.896 90.7933 24.44 90.7933 23.768V16.16C90.7933 15.44 90.6973 14.912 90.5053 14.576C90.3133 14.224 89.9613 14.048 89.4493 14.048V13.544C89.9613 13.592 90.4573 13.616 90.9373 13.616C91.7373 13.616 92.4813 13.592 93.1693 13.544C93.8733 13.48 94.5213 13.392 95.1133 13.28ZM103.971 7.232C104.611 7.232 105.163 7.312 105.627 7.472C106.091 7.632 106.499 7.848 106.851 8.12C107.075 8.296 107.275 8.56 107.451 8.912C107.643 9.248 107.739 9.648 107.739 10.112C107.739 10.608 107.555 11.056 107.187 11.456C106.819 11.856 106.339 12.056 105.747 12.056C105.091 12.056 104.563 11.88 104.163 11.528C103.779 11.176 103.587 10.688 103.587 10.064C103.587 9.6 103.723 9.176 103.995 8.792C104.267 8.392 104.683 8.104 105.243 7.928C105.195 7.864 105.115 7.816 105.003 7.784C104.907 7.736 104.771 7.712 104.595 7.712C104.323 7.712 104.099 7.752 103.923 7.832C103.747 7.912 103.595 8.024 103.467 8.168C103.323 8.344 103.211 8.592 103.131 8.912C103.051 9.232 103.011 9.712 103.011 10.352V13.568H105.579V14.048H103.011V23.528C103.011 24.312 103.195 24.84 103.563 25.112C103.931 25.368 104.435 25.496 105.075 25.496V26C104.627 25.984 104.003 25.968 103.203 25.952C102.403 25.92 101.555 25.904 100.659 25.904C100.019 25.904 99.3872 25.92 98.7632 25.952C98.1392 25.968 97.6672 25.984 97.3472 26V25.496C97.8432 25.496 98.1872 25.376 98.3792 25.136C98.5872 24.896 98.6912 24.44 98.6912 23.768V14.048H97.2512V13.568H98.6912C98.6912 12.624 98.7472 11.84 98.8592 11.216C98.9712 10.592 99.1472 10.064 99.3872 9.632C99.6432 9.184 99.9792 8.784 100.395 8.432C100.763 8.112 101.267 7.832 101.907 7.592C102.547 7.352 103.235 7.232 103.971 7.232ZM118.233 13.544V14.048C117.929 14.16 117.633 14.384 117.345 14.72C117.073 15.04 116.801 15.592 116.529 16.376L113.529 25.304L112.305 28.112L106.545 15.392C106.273 14.784 106.017 14.408 105.777 14.264C105.537 14.12 105.329 14.048 105.153 14.048V13.544C105.793 13.592 106.457 13.632 107.145 13.664C107.833 13.68 108.473 13.688 109.065 13.688C109.817 13.688 110.465 13.672 111.009 13.64C111.553 13.608 112.065 13.576 112.545 13.544V14.048C112.257 14.048 111.985 14.064 111.729 14.096C111.473 14.128 111.289 14.208 111.177 14.336C111.065 14.448 111.073 14.656 111.201 14.96L114.273 22.256L114.009 22.448L115.161 18.92C115.529 17.832 115.681 16.936 115.617 16.232C115.569 15.528 115.385 15 115.065 14.648C114.745 14.28 114.345 14.08 113.865 14.048V13.544C114.089 13.56 114.361 13.576 114.681 13.592C115.001 13.608 115.313 13.624 115.617 13.64C115.937 13.64 116.193 13.64 116.385 13.64C116.673 13.64 117.009 13.632 117.393 13.616C117.777 13.6 118.057 13.576 118.233 13.544ZM113.529 25.304L112.521 28.208C112.377 28.608 112.217 28.952 112.041 29.24C111.881 29.528 111.689 29.76 111.465 29.936C111.257 30.096 110.977 30.232 110.625 30.344C110.289 30.456 109.825 30.512 109.233 30.512C108.785 30.512 108.305 30.44 107.793 30.296C107.297 30.152 106.865 29.912 106.497 29.576C106.145 29.256 105.969 28.816 105.969 28.256C105.969 27.696 106.185 27.248 106.617 26.912C107.049 26.576 107.617 26.408 108.321 26.408C108.977 26.408 109.497 26.552 109.881 26.84C110.281 27.144 110.481 27.592 110.481 28.184C110.481 28.536 110.353 28.888 110.097 29.24C109.857 29.592 109.465 29.856 108.921 30.032C109.049 30.048 109.193 30.056 109.353 30.056C109.513 30.072 109.641 30.08 109.737 30.08C110.249 30.08 110.705 29.92 111.105 29.6C111.505 29.296 111.809 28.816 112.017 28.16L112.857 25.544L113.529 25.304Z" fill="#404040"/>
<g clip-path="url(#clip0_2022_61)">
<path d="M3.8614 6.63315C5.97861 6.63315 7.7009 8.33079 7.7009 10.4177V26.2046C7.7009 28.2915 5.97861 29.9892 3.8614 29.9892C1.7442 29.9892 0.0219116 28.2915 0.0219116 26.2046V10.4177C0.0219116 8.33079 1.7442 6.63315 3.8614 6.63315Z" fill="url(#paint0_linear_2022_61)"/>
<path d="M15.1605 3C17.2777 3 19 4.69764 19 6.78454V19.2195C19 21.3064 17.2777 23.004 15.1605 23.004C13.0433 23.004 11.321 21.3064 11.321 19.2195V6.78454C11.321 4.69764 13.0433 3 15.1605 3Z" fill="url(#paint1_linear_2022_61)"/>
<path d="M18.9671 19.5762C18.8025 20.4413 16.9815 21.4144 16.1697 19.9547C15.5006 18.7436 13.6467 15.9539 13.0323 15.024L7.37183 4.94629C6.34065 3.11889 4.00404 2.4593 2.15012 3.47572C-0.383949 4.94629 0.0219399 7.044 0.0219399 12.5586C0.18649 11.6936 2.15012 11.2503 2.96189 12.71C3.77367 14.1698 11.6721 28.205 11.6721 28.205C12.7032 30.0324 15.7309 30.2595 16.9376 29.7296C18.0566 29.243 18.7367 28.0644 18.8464 26.8101C19.1316 25.3396 18.9122 23.0905 18.9671 19.5762Z" fill="url(#paint2_linear_2022_61)"/>
</g>
<defs>
<linearGradient id="paint0_linear_2022_61" x1="3.86478" y1="6.63205" x2="3.86478" y2="29.9881" gradientUnits="userSpaceOnUse">
<stop offset="0.165" stop-color="#5F5001"/>
<stop offset="1" stop-color="#FDD201"/>
</linearGradient>
<linearGradient id="paint1_linear_2022_61" x1="15.1639" y1="3" x2="15.1639" y2="23.004" gradientUnits="userSpaceOnUse">
<stop stop-color="#4F8620"/>
<stop offset="1" stop-color="#25430C"/>
</linearGradient>
<linearGradient id="paint2_linear_2022_61" x1="2.31761" y1="4.55888" x2="16.7878" y2="28.4349" gradientUnits="userSpaceOnUse">
<stop stop-color="#FFD403"/>
<stop offset="1" stop-color="#2F5B0B"/>
</linearGradient>
<clipPath id="clip0_2022_61">
<rect width="19" height="27" fill="white" transform="translate(0 3)"/>
</clipPath>
</defs>
</svg>
